<svg width="158" height="40" viewBox="0 0 158 40" fill="none" xmlns="http://www.w3.org/2000/svg">
<g clip-path="url(#clip0_1_151)">
<path fill-rule="evenodd" clip-rule="evenodd" d="M24.6124 -0.235468C23.3888 2.02733 22.0633 4.23436 20.6189 6.37764C19.2594 8.34564 17.8999 10.3057 16.5404 12.2737C15.9457 13.1979 15.5208 14.1779 15.2659 15.2217C14.6627 20.5759 13.9574 25.9142 13.1417 31.2366C12.7679 33.6109 12.3176 35.9773 11.7823 38.3277C11.4764 38.5827 11.1195 38.7739 10.7202 38.8855C10.5247 38.8536 10.3973 38.7421 10.3378 38.5668C10.3633 34.4236 10.4228 30.2805 10.5077 26.1373C8.16264 31.2206 5.23125 35.9614 1.7136 40.3595C1.33974 40.5905 0.940392 40.6144 0.524051 40.4392C0.430586 40.3037 0.42209 40.1523 0.481567 40.0009C2.34236 36.535 4.04171 33.0054 5.57962 29.404C6.84564 26.1771 7.60185 22.8387 7.83126 19.4047C7.88224 18.5681 7.69531 17.7873 7.27897 17.0542C6.66721 16.5443 6.02995 16.5284 5.3672 17.0144C3.96524 18.3211 3.0221 19.8748 2.52079 21.6754C2.26589 22.7511 1.95151 23.8108 1.58615 24.8625C1.51817 25.0537 1.41621 25.229 1.28876 25.3804C0.940392 25.4441 0.753463 25.2927 0.73647 24.9422C-0.1302 20.8388 0.770457 17.118 3.45543 13.7875C5.43518 11.7876 7.89074 10.7359 10.8051 10.6403C11.7992 10.2977 12.7339 9.84355 13.6091 9.28582C16.5914 6.62464 19.4803 3.89175 22.2758 1.07919C22.9725 0.545357 23.6522 -0.00440776 24.315 -0.554173H24.6548C24.6718 -0.442626 24.6548 -0.339047 24.6124 -0.235468Z" fill="#44C5FF"/>
<path fill-rule="evenodd" clip-rule="evenodd" d="M12.9293 6.61667C12.6914 8.21019 11.7313 9.17427 10.0404 9.52485C9.58159 9.58859 9.13127 9.55672 8.68094 9.44517C7.91623 9.10256 7.25348 8.64044 6.6842 8.05084C6.1574 7.27002 5.98747 6.42545 6.1744 5.50121C6.60773 4.23436 7.49989 3.41369 8.85087 3.03125C11.3574 3.06312 12.7169 4.25826 12.9293 6.61667Z" fill="#44C5FF"/>
<path fill-rule="evenodd" clip-rule="evenodd" d="M95.6215 26.334C93.7877 20.9083 91.8086 15.5377 89.7206 10.2036C88.8128 10.0203 87.905 9.96535 86.9971 10.0203C85.0907 15.2077 83.1842 20.3951 81.2778 25.6008C80.7513 27.0855 80.0069 28.442 79.0082 29.6334C80.5697 29.8167 82.1493 29.8717 83.7289 29.8167C83.7653 29.6334 83.7289 29.4501 83.6382 29.2668C83.1116 28.8086 82.8393 28.222 82.8211 27.5255C83.1116 26.0041 83.4748 24.5193 83.9105 23.0346C86.2164 22.998 88.5041 23.0346 90.81 23.1263C91.5 24.721 92.0991 26.334 92.6257 27.9837C92.3896 28.6253 92.0265 29.1752 91.5363 29.6334C93.8421 29.8717 96.1299 29.8717 98.4358 29.6334C97.2737 28.7352 96.3296 27.6354 95.6215 26.334ZM84.4552 21.5682C85.5083 18.8554 86.4161 16.1059 87.1787 13.3197C87.6871 14.0896 88.0865 14.9511 88.3589 15.8859C89.0488 17.8289 89.6843 19.7902 90.2653 21.7515C88.3226 21.8065 86.398 21.7515 84.4552 21.5682Z" fill="white"/>
<path fill-rule="evenodd" clip-rule="evenodd" d="M132.752 11.4867C132.715 16.7474 132.752 21.9898 132.842 27.2505C133.206 28.112 133.714 28.8819 134.386 29.5417C133.26 29.7617 132.116 29.8534 130.936 29.8167C129.847 29.7617 128.757 29.6884 127.668 29.6334C128.031 29.0652 128.412 28.5153 128.848 27.9837C128.957 27.6721 129.048 27.3788 129.12 27.0672V11.67H126.76C125.144 12 123.8 12.7882 122.766 14.0529C122.493 13.9063 122.366 13.6497 122.402 13.3197C122.566 12.2749 122.747 11.2301 122.947 10.2036C128.158 9.96534 133.351 9.96534 138.562 10.2036C138.998 11.4501 139.125 12.7332 138.925 14.0529C137.2 12.3666 135.148 11.5234 132.752 11.4867Z" fill="white"/>
<path fill-rule="evenodd" clip-rule="evenodd" d="M43.4214 25.0509C43.2217 26.6273 42.9856 28.1853 42.6951 29.725C38.1923 29.9083 33.7076 29.8534 29.2593 29.5417C30.04 28.9369 30.621 28.167 30.9842 27.2505C31.1112 22.2464 31.1112 17.224 30.9842 12.2199C30.5665 11.4684 30.0582 10.7902 29.4408 10.2036C31.6741 10.0203 33.9255 9.96535 36.1588 10.0203C36.1951 10.2036 36.1588 10.3869 36.068 10.5702C35.6322 10.9735 35.2328 11.4134 34.8878 11.8533C34.8333 12.0916 34.7607 12.3482 34.7062 12.5865V28.3503H36.885C39.2817 28.057 41.2789 26.9756 42.8767 25.1426C43.0583 25.0509 43.2398 25.0143 43.4214 25.0509Z" fill="white"/>
<path fill-rule="evenodd" clip-rule="evenodd" d="M59.5807 25.7841C59.5626 27.0855 59.4355 28.3686 59.2176 29.6334C54.6966 29.8167 50.1575 29.8717 45.6002 29.8167C46.0178 29.2118 46.4354 28.5886 46.8711 27.9837C46.9801 27.7454 47.0709 27.5071 47.1435 27.2505C47.2706 22.3564 47.2706 17.4806 47.1435 12.5865C47.0164 12.11 46.8167 11.67 46.508 11.3034C46.3264 10.9735 46.0541 10.7169 45.691 10.5702C45.6002 10.3869 45.5639 10.2036 45.6002 10.0203H58.6729C58.7274 11.1018 58.8545 12.1649 59.036 13.2281C59.0723 13.5947 58.9452 13.8696 58.6729 14.0529C57.8559 12.9531 56.7665 12.2566 55.4047 11.945C53.8977 11.6884 52.3907 11.5967 50.8656 11.67V19.1853C51.8279 19.222 52.8083 19.1853 53.7706 19.0937C55.0961 18.837 56.367 18.4338 57.5835 17.9022V21.7515C56.476 21.2199 55.3321 20.7984 54.1338 20.4684H50.8656V28.3503H53.5891C55.6589 28.0753 57.4746 27.2505 59.036 25.8757C59.2176 25.7841 59.3992 25.7474 59.5807 25.7841Z" fill="white"/>
<path fill-rule="evenodd" clip-rule="evenodd" d="M80.8239 10.2036C79.8434 11.1018 79.0264 12.1283 78.3728 13.3197C76.2848 18.8004 74.1968 24.2627 72.1087 29.725C71.6185 29.8717 71.1283 29.8534 70.6562 29.6334C68.5864 23.8595 66.3168 18.1772 63.8475 12.5865C63.1031 11.7434 62.4131 10.9002 61.7595 10.0203C63.9383 9.96535 66.1171 10.0203 68.2959 10.2036C68.1143 10.5886 67.9146 10.9552 67.6604 11.3034C67.5333 11.67 67.5333 12.0366 67.6604 12.4032C69.2037 16.4725 70.8378 20.5051 72.5627 24.501C74.3783 20.4868 75.8672 16.3625 77.011 12.1283C77.0655 11.4134 76.8839 10.7719 76.4663 10.2036C77.9188 9.96535 79.3714 9.96535 80.8239 10.2036Z" fill="white"/>
<path fill-rule="evenodd" clip-rule="evenodd" d="M119.86 10.2036C119.443 10.7169 118.989 11.2118 118.499 11.67C118.299 12.0183 118.136 12.3849 118.045 12.7698C118.099 18.5254 118.045 24.2627 117.863 30C117.355 29.9633 116.974 29.7067 116.683 29.2668C112.689 24.2077 108.64 19.1853 104.518 14.2362C104.391 18.5071 104.391 22.7963 104.518 27.0672C104.881 28.057 105.335 28.9735 105.88 29.8167C104.355 29.8717 102.848 29.8167 101.341 29.6334C101.831 28.9919 102.285 28.3136 102.703 27.6171C102.83 22.4847 102.83 17.3523 102.703 12.2199C102.158 11.5234 101.577 10.8452 100.978 10.2036C102.612 9.98368 104.246 9.96535 105.88 10.112C109.239 14.2912 112.652 18.4155 116.138 22.4847C116.265 18.947 116.265 15.391 116.138 11.8533C115.666 11.3034 115.321 10.6986 115.14 10.0203C116.719 9.96535 118.299 10.0203 119.86 10.2036Z" fill="white"/>
<path fill-rule="evenodd" clip-rule="evenodd" d="M157.808 29.2668C156.628 28.4236 155.756 27.3238 155.175 25.9674C153.414 20.67 151.526 15.4094 149.546 10.2036C148.62 10.0203 147.694 9.96535 146.732 10.0203C144.626 15.6843 142.538 21.3666 140.468 27.0672C139.996 28.002 139.415 28.8452 138.743 29.6334C140.323 29.8717 141.884 29.8717 143.464 29.6334C143.155 29.2851 142.883 28.9185 142.647 28.5336C142.665 26.7189 142.992 24.9409 143.646 23.2179C145.988 22.9796 148.312 22.9796 150.636 23.2179C151.199 24.8126 151.762 26.4073 152.361 27.9837C152.052 28.6069 151.743 29.2118 151.453 29.8167H157.989C158.026 29.5967 157.971 29.4134 157.808 29.2668ZM144.19 21.5682C145.171 18.9104 146.079 16.2159 146.914 13.503C147.204 13.723 147.422 14.0346 147.549 14.4195C148.384 16.8024 149.201 19.1853 150 21.5682C148.058 21.8065 146.133 21.8065 144.19 21.5682Z" fill="white"/>
</g>
<defs>
<clipPath id="clip0_1_151">
<rect width="158" height="40" fill="white"/>
</clipPath>
</defs>
</svg>
