<svg width="12" height="12" viewBox="0 0 12 12" fill="none" xmlns="http://www.w3.org/2000/svg">
<path d="M10.8226 0.123358C11.1137 -0.0688258 11.5097 -0.0362317 11.7659 0.220037C12.0222 0.476318 12.0548 0.872306 11.8626 1.1634L11.7659 1.28058L7.05353 5.99299L11.7659 10.7054L11.8626 10.8226C12.0548 11.1137 12.0222 11.5097 11.7659 11.7659C11.5097 12.0222 11.1137 12.0548 10.8226 11.8626L10.7054 11.7659L5.99299 7.05353L1.28058 11.7659C0.987705 12.0588 0.512916 12.0588 0.220037 11.7659C-0.0728357 11.4731 -0.0727989 10.9983 0.220037 10.7054L4.93244 5.99299L0.220037 1.28058L0.123358 1.1634C-0.0688885 0.872278 -0.0362581 0.476333 0.220037 0.220037C0.476333 -0.0362579 0.872279 -0.0688885 1.1634 0.123358L1.28058 0.220037L5.99299 4.93244L10.7054 0.220037L10.8226 0.123358Z" fill="#989898"/>
</svg>
